<svg width="28" height="10" viewBox="0 0 28 10" fill="none" xmlns="http://www.w3.org/2000/svg">
<path d="M13.153 6.18651C13.1581 5.74264 13.0376 5.30721 12.8068 4.93555C12.5761 4.56389 12.2455 4.27278 11.8571 4.09921C11.4686 3.92564 11.0399 3.87746 10.6254 3.96078C10.2109 4.0441 9.82929 4.25516 9.52908 4.56714C9.22887 4.87913 9.02362 5.27795 8.93941 5.71292C8.85519 6.14789 8.89582 6.59938 9.05613 7.01C9.21644 7.42063 9.48919 7.77186 9.83971 8.01905C10.1902 8.26625 10.6027 8.39825 11.0247 8.39828C11.3031 8.4022 11.5795 8.34786 11.8377 8.23843C12.0959 8.129 12.3309 7.96666 12.5289 7.76086C12.727 7.55505 12.8841 7.30988 12.9913 7.0396C13.0984 6.76932 13.1534 6.47934 13.153 6.18651ZM14.8904 2.57189V9.828H13.1198V9.17495C12.4892 9.71167 11.7005 10.0005 10.8893 9.99194C10.406 10.0054 9.92493 9.91698 9.47461 9.73174C9.02428 9.54651 8.6138 9.26827 8.26738 8.91344C7.92096 8.55861 7.64562 8.13439 7.45762 7.6658C7.26962 7.19722 7.17276 6.69377 7.17276 6.18517C7.17276 5.67656 7.26962 5.17311 7.45762 4.70453C7.64562 4.23594 7.92096 3.81172 8.26738 3.45689C8.6138 3.10206 9.02428 2.82382 9.47461 2.63859C9.92493 2.45336 10.406 2.36488 10.8893 2.37839C11.7063 2.3747 12.4989 2.67127 13.13 3.21688V2.57189H14.8904ZM20.7669 8.17253H19.4357C19.0295 8.17253 18.7689 7.9871 18.7689 7.6028V4.20586H20.7669V2.57189H18.7765V0.502554H16.9881V2.57189H15.6441V4.21392H16.9906V8.07041C16.9906 9.04327 17.6575 9.81457 18.8583 9.81457H20.7745L20.7669 8.17253ZM24.8012 10C26.8452 10 28 8.99489 28 7.6028C28 6.61381 27.3178 5.87477 25.8896 5.55765L24.3796 5.23784C23.5033 5.07122 23.2273 4.90191 23.2273 4.56866C23.2273 4.13061 23.6489 3.86187 24.4282 3.86187C25.2713 3.86187 25.8896 4.09836 26.0685 4.90191H27.8391C27.7394 3.39425 26.6842 2.38645 24.5406 2.38645C22.6908 2.38645 21.3903 3.17656 21.3903 4.70035C21.3903 5.75652 22.1057 6.44451 23.6489 6.78044L25.3377 7.18355C26.002 7.31793 26.1809 7.50067 26.1809 7.78554C26.1809 8.23972 25.6699 8.52459 24.8651 8.52459C23.8431 8.52459 23.258 8.29078 23.0306 7.48455H21.2421C21.4976 8.99489 22.5911 10 24.7986 10H24.8012ZM1.52588e-05 0H6.67617V1.67428H1.80383V4.07417H6.54587V5.68664H1.80383V8.10535H6.67617V9.78232H1.52588e-05V0Z" fill="#060E33"/>
</svg>
