<svg width="36" height="36" viewBox="0 0 36 36" fill="none" xmlns="http://www.w3.org/2000/svg">
<path d="M30.3661 4.92025V17.2972C30.3661 17.6113 30.3032 18.4281 30.3032 18.7422V18.8679C29.8634 25.9045 25.0258 30.2396 17.6122 30.2396C16.003 30.2791 14.4028 29.9871 12.9113 29.3819C11.4197 28.7766 10.0687 27.871 8.94201 26.7213C7.88041 25.5774 7.06057 24.2311 6.53159 22.7629C6.00261 21.2947 5.77537 19.7349 5.86349 18.1768C6.1148 12.271 11.2038 7.93595 17.6122 7.93595C18.8932 7.88414 20.1724 8.07602 21.3818 8.5014V14.5328L21.0677 14.4072C20.1762 14.0254 19.2089 13.8534 18.2404 13.9045C16.23 13.8417 14.408 14.5328 13.4027 15.7265C12.6253 16.6614 12.2025 17.8405 12.209 19.0564C12.1985 20.292 12.6208 21.4923 13.4027 22.449C14.0223 23.0941 14.7783 23.5925 15.6153 23.9078C16.4523 24.223 17.3492 24.3471 18.2404 24.271C22.5127 24.0826 23.6436 20.6271 23.9577 18.5538C24.0834 17.5485 24.1462 15.538 24.1462 15.2867V1.06894C22.235 0.364506 20.2145 0.00293911 18.1776 0.000876932C13.9841 -0.0405018 9.90781 1.38364 6.65245 4.02743C3.39709 6.67121 1.16702 10.3687 0.347267 14.4815C-0.472485 18.5943 0.169536 22.8642 2.16248 26.5541C4.15543 30.2439 7.37421 33.1221 11.2631 34.6917C15.152 36.2613 19.4668 36.4238 23.4627 35.151C27.4586 33.8783 30.8847 31.2503 33.1495 27.7207C35.4142 24.1912 36.3755 19.9816 35.8673 15.8188C35.3591 11.656 33.4134 7.80133 30.3661 4.92025V4.92025Z" fill="#06C167"/>
</svg>
