<svg width="28" height="10" viewBox="0 0 28 10" fill="none" xmlns="http://www.w3.org/2000/svg">
<path d="M28 3.92843V2.60998H27.5222C27.1888 2.59602 26.8579 2.67574 26.5638 2.84086C26.2697 3.00598 26.0232 3.25049 25.8497 3.54904V2.66649H24.4856V9.82107H25.8626V5.75272C25.8626 4.64415 26.5177 3.92843 27.4194 3.92843H28ZM18.0938 5.59397C18.191 5.07936 18.4556 4.61602 18.8426 4.28301C19.2296 3.95 19.715 3.76797 20.2158 3.76797C20.7167 3.76797 21.202 3.95 21.589 4.28301C21.976 4.61602 22.2407 5.07936 22.3378 5.59397H18.0938ZM20.2492 2.52657C19.7808 2.5223 19.3163 2.61529 18.8824 2.80015C18.4486 2.98501 18.054 3.25809 17.7215 3.6036C17.3889 3.94911 17.1251 4.36021 16.9452 4.81314C16.7652 5.26607 16.6727 5.75186 16.6731 6.24243C16.6731 8.37616 18.2839 9.97444 20.3725 9.97444C20.9525 9.9867 21.527 9.85454 22.0486 9.58884C22.5703 9.32314 23.0243 8.93149 23.3732 8.44612L22.3764 7.68734C22.1493 8.02045 21.8482 8.29059 21.499 8.47437C21.1499 8.65816 20.7632 8.75005 20.3725 8.74209C19.8183 8.74957 19.28 8.54828 18.8556 8.17492C18.4312 7.80155 18.149 7.28094 18.0604 6.70792H23.7123V6.24243C23.7123 4.11139 22.2402 2.52657 20.2338 2.52657H20.2492ZM12.3777 8.74209C11.9093 8.73891 11.4524 8.59054 11.0645 8.31572C10.6766 8.0409 10.3751 7.65192 10.198 7.19784C10.0208 6.74377 9.97608 6.24493 10.0693 5.76425C10.1625 5.28356 10.3896 4.84255 10.7218 4.49684C11.054 4.15112 11.4766 3.91619 11.9361 3.82166C12.3957 3.72714 12.8716 3.77725 13.304 3.96569C13.7364 4.15413 14.1058 4.47244 14.3657 4.8805C14.6256 5.28855 14.7643 5.76807 14.7643 6.25858C14.7636 6.58588 14.7013 6.90983 14.581 7.21188C14.4606 7.51393 14.2845 7.78814 14.0628 8.01883C13.8412 8.24951 13.5782 8.43214 13.289 8.55625C12.9999 8.68036 12.6902 8.74351 12.3777 8.74209ZM8.63714 9.82107H10.0013V8.92237C10.3275 9.26398 10.7149 9.53487 11.1411 9.71955C11.5674 9.90423 12.0243 9.99907 12.4856 9.99865C12.9624 10.0121 13.437 9.92526 13.8812 9.74339C14.3255 9.56153 14.7305 9.28828 15.0723 8.93979C15.4141 8.59129 15.6858 8.1746 15.8712 7.71433C16.0567 7.25405 16.1523 6.75952 16.1523 6.25992C16.1523 5.76032 16.0567 5.26579 15.8712 4.80552C15.6858 4.34524 15.4141 3.92856 15.0723 3.58006C14.7305 3.23156 14.3255 2.95831 13.8812 2.77645C13.437 2.59458 12.9624 2.50779 12.4856 2.52119C12.0262 2.52092 11.5713 2.61589 11.1471 2.80061C10.723 2.98533 10.3379 3.25615 10.0141 3.59747V0H8.63714V9.82107ZM3.78165 8.66945C5.1047 8.66945 6.12718 7.61738 6.12718 6.06216V0H7.56071V9.82107H6.14003V8.90892C5.81029 9.25686 5.41689 9.53153 4.9834 9.71647C4.54991 9.9014 4.08524 9.99281 3.61723 9.9852C1.56199 9.9852 1.52588e-05 8.45419 1.52588e-05 6.14018V0H1.44382V6.06216C1.44382 7.64698 2.45345 8.66945 3.79192 8.66945" fill="#F6F0EA"/>
</svg>
