<svg width="87" height="42" viewBox="0 0 87 42" fill="none" xmlns="http://www.w3.org/2000/svg">
<path d="M2.07832 34.0143V39.9152H3.60272C4.38066 39.9067 5.12348 39.592 5.66849 39.0399C6.2135 38.4879 6.51627 37.7437 6.51048 36.9701C6.52058 36.5919 6.45562 36.2153 6.3193 35.862C6.18298 35.5087 5.97797 35.1855 5.716 34.911C5.45402 34.6365 5.14021 34.416 4.7925 34.2622C4.44479 34.1083 4.06999 34.0241 3.68952 34.0143H2.07832ZM3.60272 32.1534C4.2529 32.1317 4.90082 32.2404 5.5079 32.4728C6.11498 32.7053 6.66882 33.0568 7.13646 33.5065C7.60409 33.9562 7.97596 34.4948 8.22993 35.0903C8.4839 35.6858 8.61478 36.326 8.61478 36.9728C8.61478 37.6197 8.4839 38.2599 8.22993 38.8554C7.97596 39.4509 7.60409 39.9895 7.13646 40.4392C6.66882 40.8889 6.11498 41.2404 5.5079 41.4728C4.90082 41.7053 4.2529 41.814 3.60272 41.7923H0.244695C0.21122 41.7924 0.178087 41.7856 0.147356 41.7724C0.116624 41.7592 0.0889514 41.7399 0.0660563 41.7156C0.0431612 41.6913 0.0255334 41.6626 0.0142684 41.6313C0.00300338 41.5999 -0.00165809 41.5666 0.000573673 41.5334V32.4231C0.000573673 32.3587 0.0262935 32.2969 0.0720752 32.2514C0.117857 32.2059 0.17995 32.1803 0.244695 32.1803L3.60272 32.1534ZM15.9119 40.1418C16.5432 40.1429 17.1607 39.9576 17.6861 39.6095C18.2115 39.2614 18.6212 38.7661 18.8633 38.1864C19.1054 37.6066 19.169 36.9685 19.0461 36.3527C18.9232 35.737 18.6193 35.1713 18.1729 34.7275C17.7264 34.2836 17.1575 33.9814 16.5383 33.8592C15.919 33.737 15.2772 33.8003 14.6941 34.041C14.111 34.2817 13.6129 34.689 13.2628 35.2114C12.9127 35.7338 12.7264 36.3478 12.7274 36.9755C12.7274 37.8153 13.0629 38.6206 13.6601 39.2144C14.2573 39.8082 15.0673 40.1418 15.9119 40.1418ZM15.9119 31.9484C16.5894 31.9263 17.2645 32.0399 17.897 32.2825C18.5295 32.5251 19.1064 32.8916 19.5936 33.3604C20.0807 33.8291 20.4681 34.3905 20.7326 35.0111C20.9972 35.6317 21.1335 36.2988 21.1335 36.9728C21.1335 37.6469 20.9972 38.314 20.7326 38.9346C20.4681 39.5552 20.0807 40.1166 19.5936 40.5853C19.1064 41.0541 18.5295 41.4206 17.897 41.6632C17.2645 41.9058 16.5894 42.0194 15.9119 41.9973C15.235 42.0194 14.5607 41.9059 13.9289 41.6636C13.297 41.4213 12.7207 41.0551 12.234 40.5869C11.7474 40.1186 11.3605 39.5579 11.0962 38.9379C10.8319 38.318 10.6958 37.6516 10.6958 36.9782C10.6958 36.3049 10.8319 35.6385 11.0962 35.0185C11.3605 34.3986 11.7474 33.8378 12.234 33.3696C12.7207 32.9014 13.297 32.5352 13.9289 32.2929C14.5607 32.0506 15.235 31.9371 15.9119 31.9592V31.9484ZM28.4272 40.1418C29.0583 40.1429 29.6755 39.9577 30.2008 39.6099C30.7261 39.262 31.1358 38.7671 31.3781 38.1876C31.6203 37.6082 31.6843 36.9703 31.5618 36.3547C31.4393 35.7391 31.136 35.1735 30.6901 34.7294C30.2442 34.2853 29.6758 33.9827 29.0569 33.8599C28.438 33.737 27.7963 33.7995 27.2131 34.0394C26.6299 34.2793 26.1314 34.6858 25.7807 35.2075C25.4299 35.7292 25.2427 36.3426 25.2427 36.9701C25.2456 37.809 25.582 38.6127 26.1786 39.2059C26.7752 39.799 27.5835 40.1336 28.4272 40.1364V40.1418ZM28.4272 31.943C29.4176 31.9832 30.3743 32.312 31.1783 32.8884C31.9823 33.4649 32.5982 34.2637 32.9493 35.1854C33.3004 36.1071 33.3712 37.1111 33.153 38.0725C32.9348 39.0339 32.4372 39.9104 31.7221 40.5929C31.0069 41.2753 30.1058 41.7338 29.1307 41.9111C28.1556 42.0884 27.1496 41.9768 26.2378 41.5902C25.326 41.2036 24.5486 40.5591 24.0022 39.7367C23.4559 38.9143 23.1647 37.9504 23.165 36.9648C23.1748 36.2902 23.3192 35.6244 23.5897 35.0058C23.8603 34.3872 24.2516 33.8281 24.7411 33.361C25.2306 32.8939 25.8084 32.528 26.4412 32.2846C27.0739 32.0412 27.749 31.9251 28.4272 31.943ZM40.6875 34.0143H38.5175V36.5602H40.6875C41.0205 36.5748 41.3457 36.4576 41.5918 36.2341C41.8379 36.0106 41.9848 35.6992 42.0003 35.3681V35.3196C42.0061 35.1538 41.979 34.9885 41.9205 34.8332C41.862 34.6778 41.7733 34.5355 41.6594 34.4143C41.5455 34.293 41.4088 34.1953 41.2569 34.1267C41.105 34.058 40.941 34.0198 40.7743 34.0143H40.6875ZM36.4615 32.3961C36.4615 32.3331 36.4866 32.2728 36.5314 32.2283C36.5761 32.1838 36.6369 32.1587 36.7002 32.1587H40.7472C41.1766 32.1405 41.6053 32.209 42.0075 32.3599C42.4096 32.5109 42.7769 32.7412 43.0871 33.0371C43.3973 33.3329 43.6441 33.6881 43.8125 34.0813C43.981 34.4746 44.0676 34.8976 44.0672 35.325C44.0726 35.9124 43.911 36.4894 43.601 36.9894C43.291 37.4895 42.8452 37.8923 42.315 38.1514L44.1811 41.4309C44.2166 41.484 44.2297 41.5488 44.2175 41.6114C44.2053 41.674 44.1689 41.7293 44.116 41.7654C44.0706 41.7935 44.0175 41.8067 43.9641 41.8031H42.315C42.2702 41.8039 42.2262 41.7922 42.1878 41.7693C42.1494 41.7464 42.1183 41.7133 42.098 41.6737L40.2969 38.4373H38.5175V41.5334C38.5175 41.5964 38.4924 41.6567 38.4476 41.7012C38.4028 41.7458 38.3421 41.7708 38.2788 41.7708H36.6893C36.626 41.7708 36.5653 41.7458 36.5205 41.7012C36.4758 41.6567 36.4506 41.5964 36.4506 41.5334L36.4615 32.3961ZM49.465 34.0574V39.9908H50.9948C51.7737 39.9794 52.5162 39.6612 53.0594 39.106C53.6025 38.5508 53.9019 37.8039 53.8917 37.0295C53.9122 36.265 53.6265 35.5237 53.0976 34.9684C52.5686 34.4132 51.8397 34.0894 51.0708 34.0682H49.4433L49.465 34.0574ZM50.9948 32.1965C52.2811 32.1965 53.5147 32.7046 54.4242 33.6089C55.3337 34.5132 55.8447 35.7398 55.8447 37.0187C55.8447 38.2976 55.3337 39.5242 54.4242 40.4285C53.5147 41.3328 52.2811 41.8409 50.9948 41.8409H47.6368C47.5721 41.8409 47.51 41.8153 47.4642 41.7698C47.4184 41.7243 47.3927 41.6625 47.3927 41.5982V32.4284C47.3927 32.3966 47.399 32.365 47.4113 32.3356C47.4235 32.3061 47.4415 32.2794 47.4642 32.2568C47.4869 32.2343 47.5138 32.2164 47.5434 32.2042C47.573 32.192 47.6047 32.1857 47.6368 32.1857L50.9948 32.1965ZM62.3058 34.5537L61.1286 37.7253H63.4721L62.3058 34.5537ZM60.4342 39.5107L59.6747 41.6197C59.6572 41.6694 59.6238 41.712 59.5798 41.7412C59.5358 41.7704 59.4834 41.7845 59.4306 41.7815H57.7706C57.7388 41.7853 57.7065 41.7826 57.6758 41.7737C57.6451 41.7648 57.6164 41.7498 57.5916 41.7297C57.5668 41.7096 57.5464 41.6847 57.5314 41.6565C57.5165 41.6284 57.5074 41.5975 57.5047 41.5658C57.4965 41.5248 57.4965 41.4827 57.5047 41.4417L61.1177 32.3098C61.1369 32.2616 61.1708 32.2207 61.2146 32.1926C61.2583 32.1646 61.3098 32.1508 61.3619 32.1534H63.2334C63.2855 32.1508 63.337 32.1646 63.3808 32.1926C63.4245 32.2207 63.4584 32.2616 63.4776 32.3098L67.0851 41.4417C67.0989 41.47 67.1068 41.5008 67.1086 41.5321C67.1103 41.5635 67.1057 41.5949 67.0951 41.6245C67.0845 41.6541 67.0681 41.6813 67.0468 41.7046C67.0256 41.7278 66.9999 41.7467 66.9712 41.76C66.9288 41.7729 66.8835 41.7729 66.841 41.76H65.1701C65.1179 41.7636 65.0659 41.7496 65.0226 41.7202C64.9793 41.6909 64.9472 41.6479 64.9314 41.5982L64.1611 39.4891L60.4342 39.5107ZM69.0327 34.7586C69.0327 33.2429 70.351 31.9376 72.4287 31.9376C73.5414 31.9109 74.6209 32.3151 75.4395 33.0649C75.4862 33.1115 75.5125 33.1745 75.5125 33.2402C75.5125 33.306 75.4862 33.369 75.4395 33.4155L74.5064 34.3433C74.4846 34.3667 74.4582 34.3853 74.4288 34.398C74.3994 34.4108 74.3676 34.4174 74.3356 34.4174C74.3035 34.4174 74.2718 34.4108 74.2424 34.398C74.213 34.3853 74.1865 34.3667 74.1647 34.3433C73.7185 33.9414 73.1392 33.7168 72.5372 33.7122C71.7072 33.7122 71.0887 34.1923 71.0887 34.7478C71.0887 36.5386 75.9712 35.503 75.9712 38.9497C75.9712 40.6704 74.6583 41.9757 72.3039 41.9757C71.6558 41.9858 71.012 41.8675 70.4104 41.6277C69.8087 41.3878 69.261 41.0312 68.7994 40.5787C68.7524 40.5313 68.726 40.4673 68.726 40.4007C68.726 40.3341 68.7524 40.2701 68.7994 40.2227L69.6945 39.3327C69.7402 39.2882 69.8015 39.2633 69.8654 39.2633C69.9293 39.2633 69.9907 39.2882 70.0363 39.3327C70.6053 39.8771 71.3624 40.184 72.152 40.1903C73.1936 40.1903 73.8771 39.6509 73.8771 38.9551C73.8771 37.1643 68.9947 38.1946 68.9947 34.7532L69.0327 34.7586ZM84.9331 32.3907V35.9992H80.7776V32.3907C80.7776 32.3277 80.7525 32.2674 80.7077 32.2229C80.663 32.1784 80.6023 32.1534 80.539 32.1534H78.9494C78.8861 32.1534 78.8254 32.1784 78.7807 32.2229C78.7359 32.2674 78.7108 32.3277 78.7108 32.3907V41.5334C78.7107 41.5969 78.7357 41.6578 78.7803 41.7032C78.8249 41.7485 78.8857 41.7747 78.9494 41.7761H80.5281C80.5599 41.7762 80.5914 41.7698 80.6207 41.7576C80.65 41.7453 80.6766 41.7274 80.6988 41.7047C80.7211 41.6821 80.7385 41.6553 80.7502 41.6259C80.7619 41.5965 80.7675 41.565 80.7668 41.5334V37.8494H84.9223V41.5334C84.9223 41.5978 84.948 41.6595 84.9938 41.7051C85.0396 41.7506 85.1017 41.7761 85.1664 41.7761H86.7613C86.8251 41.7747 86.8858 41.7485 86.9305 41.7032C86.9751 41.6578 87 41.5969 87 41.5334V32.3907C87 32.3277 86.9749 32.2674 86.9301 32.2229C86.8854 32.1784 86.8246 32.1534 86.7613 32.1534H85.1718C85.14 32.1519 85.1083 32.1568 85.0784 32.1677C85.0485 32.1787 85.0212 32.1955 84.9979 32.2171C84.9747 32.2387 84.956 32.2647 84.943 32.2936C84.93 32.3225 84.923 32.3537 84.9223 32.3853L84.9331 32.3907ZM59.4252 5.24837C58.5733 3.65795 57.3013 2.32874 55.746 1.40392C54.1906 0.479102 52.411 -0.00627958 50.5988 6.13402e-05H22.6388C22.3846 0.00712657 22.1434 0.113618 21.9677 0.296412C21.792 0.479205 21.6959 0.723542 21.7003 0.976365C21.7058 1.21466 21.7984 1.44281 21.9607 1.61824L28.0528 7.72419C28.3185 7.99062 28.6345 8.20215 28.9827 8.34657C29.3309 8.49098 29.7045 8.56544 30.0818 8.56564H49.7959C50.1357 8.52922 50.4795 8.56125 50.8066 8.65982C51.1337 8.7584 51.4375 8.92149 51.6998 9.13937C51.9621 9.35724 52.1775 9.62544 52.3333 9.92794C52.4891 10.2304 52.582 10.561 52.6064 10.9C52.6308 11.239 52.5863 11.5794 52.4755 11.9009C52.3647 12.2224 52.1899 12.5184 51.9615 12.7712C51.7331 13.0241 51.4558 13.2285 51.1462 13.3725C50.8366 13.5164 50.501 13.5969 50.1594 13.609H36.2499C36.0624 13.6114 35.8798 13.6683 35.7244 13.7727C35.5691 13.877 35.4479 14.0244 35.3758 14.1964C35.3037 14.3685 35.2839 14.5578 35.3187 14.7409C35.3535 14.9241 35.4415 15.0931 35.5718 15.2272L41.664 21.3385C41.9302 21.6056 42.2471 21.8175 42.5963 21.9619C42.9455 22.1064 43.3201 22.1805 43.6983 22.18H49.8393C57.8357 22.18 63.8844 13.6791 59.4143 5.24297" fill="#EF3B24"/>
</svg>
