<svg width="60" height="29" viewBox="0 0 60 29" fill="none" xmlns="http://www.w3.org/2000/svg">
<path d="M1.43332 23.486V27.5605H2.48463C3.02114 27.5546 3.53343 27.3373 3.9093 26.9562C4.28517 26.575 4.49397 26.0611 4.48998 25.527C4.49695 25.2658 4.45215 25.0058 4.35813 24.7618C4.26412 24.5179 4.12273 24.2948 3.94206 24.1052C3.76139 23.9157 3.54497 23.7634 3.30517 23.6572C3.06536 23.551 2.80688 23.4928 2.54449 23.486H1.43332ZM2.48463 22.2011C2.93303 22.1862 3.37987 22.2612 3.79855 22.4217C4.21722 22.5822 4.59918 22.825 4.92169 23.1354C5.2442 23.4459 5.50066 23.8178 5.67581 24.229C5.85096 24.6402 5.94122 25.0822 5.94122 25.5289C5.94122 25.9755 5.85096 26.4175 5.67581 26.8287C5.50066 27.2399 5.2442 27.6118 4.92169 27.9223C4.59918 28.2328 4.21722 28.4755 3.79855 28.636C3.37987 28.7965 2.93303 28.8715 2.48463 28.8566H0.168749C0.145663 28.8567 0.122813 28.852 0.101619 28.8429C0.0804249 28.8338 0.06134 28.8204 0.0455503 28.8036C0.0297606 28.7869 0.0176035 28.7671 0.00983448 28.7454C0.00206551 28.7238 -0.0011493 28.7008 0.000389849 28.6778V22.3873C0.000389849 22.3429 0.0181277 22.3003 0.0497012 22.2688C0.0812748 22.2374 0.124098 22.2197 0.168749 22.2197L2.48463 22.2011ZM10.9737 27.7169C11.4091 27.7177 11.835 27.5898 12.1973 27.3494C12.5596 27.1091 12.8422 26.7671 13.0092 26.3668C13.1761 25.9665 13.22 25.5258 13.1352 25.1007C13.0505 24.6755 12.8409 24.285 12.533 23.9785C12.2251 23.672 11.8328 23.4633 11.4057 23.379C10.9786 23.2946 10.536 23.3383 10.1338 23.5045C9.73171 23.6707 9.38817 23.952 9.14673 24.3127C8.90528 24.6734 8.7768 25.0973 8.77754 25.5307C8.77754 26.1106 9.00892 26.6666 9.42078 27.0766C9.83264 27.4866 10.3912 27.7169 10.9737 27.7169ZM10.9737 22.0596C11.441 22.0444 11.9065 22.1228 12.3427 22.2903C12.7789 22.4578 13.1768 22.7109 13.5128 23.0345C13.8488 23.3582 14.1159 23.7458 14.2984 24.1743C14.4808 24.6028 14.5748 25.0635 14.5748 25.5289C14.5748 25.9943 14.4808 26.4549 14.2984 26.8834C14.1159 27.3119 13.8488 27.6995 13.5128 28.0232C13.1768 28.3469 12.7789 28.6 12.3427 28.7674C11.9065 28.9349 11.441 29.0134 10.9737 28.9981C10.5069 29.0134 10.0418 28.935 9.6061 28.7677C9.17036 28.6004 8.77287 28.3476 8.43727 28.0243C8.10167 27.701 7.8348 27.3138 7.65255 26.8857C7.4703 26.4577 7.37638 25.9975 7.37638 25.5326C7.37638 25.0677 7.4703 24.6075 7.65255 24.1795C7.8348 23.7514 8.10167 23.3642 8.43727 23.0409C8.77287 22.7176 9.17036 22.4648 9.6061 22.2975C10.0418 22.1302 10.5069 22.0518 10.9737 22.067V22.0596ZM19.6049 27.7169C20.0402 27.7177 20.4659 27.5899 20.8281 27.3497C21.1904 27.1095 21.473 26.7677 21.64 26.3676C21.8071 25.9676 21.8512 25.5271 21.7668 25.1021C21.6823 24.677 21.4731 24.2864 21.1656 23.9798C20.858 23.6732 20.4661 23.4642 20.0392 23.3794C19.6124 23.2946 19.1699 23.3378 18.7677 23.5034C18.3655 23.6691 18.0217 23.9497 17.7798 24.31C17.5379 24.6702 17.4088 25.0937 17.4088 25.527C17.4107 26.1062 17.6428 26.6612 18.0542 27.0707C18.4656 27.4803 19.0231 27.7113 19.6049 27.7132V27.7169ZM19.6049 22.0559C20.288 22.0836 20.9478 22.3106 21.5023 22.7087C22.0568 23.1067 22.4815 23.6583 22.7236 24.2947C22.9658 24.9311 23.0146 25.6243 22.8642 26.2882C22.7137 26.952 22.3705 27.5572 21.8773 28.0284C21.3841 28.4996 20.7626 28.8162 20.0901 28.9386C19.4177 29.061 18.7239 28.984 18.095 28.7171C17.4662 28.4501 16.93 28.0051 16.5533 27.4372C16.1765 26.8694 15.9757 26.2038 15.9758 25.5233C15.9826 25.0576 16.0822 24.5978 16.2688 24.1707C16.4554 23.7435 16.7253 23.3575 17.0628 23.035C17.4004 22.7124 17.7989 22.4598 18.2353 22.2917C18.6717 22.1237 19.1372 22.0435 19.6049 22.0559ZM28.0603 23.486H26.5638V25.244H28.0603C28.29 25.2541 28.5143 25.1731 28.684 25.0188C28.8537 24.8645 28.9551 24.6494 28.9657 24.4209V24.3873C28.9697 24.2729 28.951 24.1588 28.9107 24.0515C28.8703 23.9442 28.8092 23.8459 28.7306 23.7622C28.6521 23.6785 28.5578 23.611 28.453 23.5637C28.3483 23.5163 28.2352 23.4899 28.1202 23.486H28.0603ZM25.1458 22.3687C25.1458 22.3253 25.1632 22.2836 25.194 22.2528C25.2249 22.2221 25.2668 22.2049 25.3105 22.2049H28.1015C28.3977 22.1923 28.6933 22.2395 28.9707 22.3438C29.248 22.448 29.5013 22.607 29.7152 22.8113C29.9292 23.0156 30.0993 23.2609 30.2155 23.5324C30.3317 23.8039 30.3914 24.096 30.3912 24.3911C30.3949 24.7967 30.2834 25.195 30.0696 25.5403C29.8558 25.8856 29.5484 26.1637 29.1827 26.3426L30.4697 28.6071C30.4942 28.6437 30.5032 28.6885 30.4948 28.7317C30.4864 28.7749 30.4613 28.8131 30.4248 28.838C30.3935 28.8574 30.3569 28.8665 30.3201 28.8641H29.1827C29.1519 28.8646 29.1215 28.8565 29.095 28.8407C29.0686 28.8249 29.0471 28.802 29.0331 28.7747L27.7909 26.54H26.5638V28.6778C26.5638 28.7213 26.5465 28.763 26.5156 28.7937C26.4847 28.8244 26.4428 28.8417 26.3992 28.8417H25.303C25.2593 28.8417 25.2174 28.8244 25.1866 28.7937C25.1557 28.763 25.1384 28.7213 25.1384 28.6778L25.1458 22.3687ZM34.1138 23.5158V27.6127H35.1688C35.706 27.6048 36.2181 27.3851 36.5927 27.0017C36.9673 26.6184 37.1737 26.1027 37.1667 25.568C37.1808 25.0401 36.9838 24.5282 36.619 24.1449C36.2542 23.7615 35.7515 23.5379 35.2212 23.5233H34.0988L34.1138 23.5158ZM35.1688 22.2309C36.0559 22.2309 36.9067 22.5817 37.5339 23.2061C38.1612 23.8306 38.5136 24.6775 38.5136 25.5605C38.5136 26.4436 38.1612 27.2905 37.5339 27.9149C36.9067 28.5393 36.0559 28.8901 35.1688 28.8901H32.853C32.8083 28.8901 32.7655 28.8725 32.7339 28.841C32.7023 28.8096 32.6846 28.767 32.6846 28.7225V22.3911C32.6846 22.3691 32.689 22.3473 32.6974 22.3269C32.7059 22.3066 32.7183 22.2881 32.7339 22.2726C32.7495 22.257 32.7681 22.2447 32.7885 22.2362C32.809 22.2278 32.8309 22.2235 32.853 22.2235L35.1688 22.2309ZM42.9695 23.8585L42.1576 26.0484H43.7739L42.9695 23.8585ZM41.6787 27.2812L41.155 28.7374C41.1429 28.7717 41.1199 28.8011 41.0895 28.8213C41.0592 28.8414 41.023 28.8512 40.9866 28.8492H39.8418C39.8198 28.8517 39.7976 28.8499 39.7764 28.8437C39.7552 28.8376 39.7355 28.8273 39.7184 28.8134C39.7013 28.7995 39.6871 28.7823 39.6768 28.7628C39.6665 28.7434 39.6603 28.7221 39.6584 28.7002C39.6528 28.6719 39.6528 28.6428 39.6584 28.6145L42.1502 22.3091C42.1634 22.2759 42.1867 22.2476 42.2169 22.2282C42.2471 22.2089 42.2826 22.1994 42.3185 22.2011H43.6093C43.6451 22.1994 43.6807 22.2089 43.7109 22.2282C43.7411 22.2476 43.7644 22.2759 43.7776 22.3091L46.2656 28.6145C46.2751 28.6341 46.2806 28.6553 46.2818 28.677C46.2829 28.6986 46.2798 28.7203 46.2725 28.7407C46.2652 28.7612 46.2538 28.78 46.2392 28.796C46.2245 28.8121 46.2068 28.8251 46.187 28.8343C46.1578 28.8432 46.1265 28.8432 46.0973 28.8343H44.9449C44.9089 28.8368 44.873 28.8271 44.8432 28.8068C44.8133 28.7866 44.7911 28.7569 44.7803 28.7225L44.249 27.2663L41.6787 27.2812ZM47.6087 24C47.6087 22.9535 48.5179 22.0522 49.9508 22.0522C50.7182 22.0337 51.4627 22.3128 52.0273 22.8305C52.0595 22.8627 52.0776 22.9062 52.0776 22.9516C52.0776 22.997 52.0595 23.0405 52.0273 23.0726L51.3837 23.7132C51.3687 23.7294 51.3505 23.7422 51.3302 23.751C51.3099 23.7598 51.288 23.7644 51.2659 23.7644C51.2438 23.7644 51.2219 23.7598 51.2016 23.751C51.1813 23.7422 51.1631 23.7294 51.148 23.7132C50.8403 23.4357 50.4408 23.2806 50.0257 23.2775C49.4532 23.2775 49.0267 23.6089 49.0267 23.9926C49.0267 25.2291 52.3939 24.514 52.3939 26.8939C52.3939 28.0819 51.4885 28.9832 49.8648 28.9832C49.4178 28.9902 48.9738 28.9085 48.5589 28.7429C48.1439 28.5773 47.7662 28.3311 47.4479 28.0186C47.4154 27.9859 47.3972 27.9417 47.3972 27.8957C47.3972 27.8497 47.4154 27.8056 47.4479 27.7728L48.0652 27.1583C48.0967 27.1276 48.139 27.1104 48.183 27.1104C48.2271 27.1104 48.2694 27.1276 48.3009 27.1583C48.6933 27.5342 49.2155 27.7461 49.76 27.7505C50.4783 27.7505 50.9498 27.378 50.9498 26.8976C50.9498 25.6611 47.5826 26.3724 47.5826 23.9963L47.6087 24ZM58.5746 22.365V24.8566H55.7087V22.365C55.7087 22.3215 55.6914 22.2799 55.6605 22.2491C55.6296 22.2184 55.5878 22.2011 55.5441 22.2011H54.4479C54.4042 22.2011 54.3624 22.2184 54.3315 22.2491C54.3006 22.2799 54.2833 22.3215 54.2833 22.365V28.6778C54.2833 28.7217 54.3005 28.7637 54.3313 28.7951C54.362 28.8264 54.4039 28.8445 54.4479 28.8454H55.5366C55.5586 28.8454 55.5803 28.8411 55.6005 28.8326C55.6207 28.8241 55.639 28.8117 55.6544 28.7961C55.6697 28.7805 55.6817 28.762 55.6898 28.7417C55.6978 28.7214 55.7017 28.6997 55.7012 28.6778V26.1341H58.5671V28.6778C58.5671 28.7223 58.5848 28.7649 58.6164 28.7964C58.648 28.8278 58.6908 28.8454 58.7355 28.8454H59.8354C59.8794 28.8445 59.9213 28.8264 59.952 28.7951C59.9828 28.7637 60 28.7217 60 28.6778V22.365C60 22.3215 59.9827 22.2799 59.9518 22.2491C59.9209 22.2184 59.8791 22.2011 59.8354 22.2011H58.7392C58.7173 22.2001 58.6954 22.2035 58.6748 22.2111C58.6542 22.2186 58.6353 22.2302 58.6193 22.2451C58.6032 22.26 58.5903 22.278 58.5814 22.298C58.5724 22.3179 58.5676 22.3394 58.5671 22.3613L58.5746 22.365ZM40.9829 3.62387C40.3954 2.52573 39.5181 1.60794 38.4455 0.969374C37.3728 0.330808 36.1455 -0.0043359 34.8957 4.2354e-05H15.6129C15.4376 0.00492073 15.2713 0.0784506 15.1501 0.204665C15.0289 0.33088 14.9627 0.499588 14.9657 0.674157C14.9695 0.838695 15.0333 0.996227 15.1453 1.11736L19.3468 5.33337C19.53 5.51733 19.7479 5.66339 19.9881 5.76311C20.2282 5.86282 20.4858 5.91423 20.746 5.91437H34.342C34.5764 5.88922 34.8134 5.91134 35.039 5.9794C35.2646 6.04746 35.4741 6.16008 35.655 6.31051C35.8359 6.46095 35.9845 6.64613 36.0919 6.855C36.1994 7.06387 36.2634 7.29215 36.2803 7.5262C36.2971 7.76026 36.2664 7.99529 36.19 8.21728C36.1136 8.43926 35.993 8.64364 35.8355 8.81822C35.678 8.9928 35.4868 9.134 35.2732 9.23338C35.0597 9.33277 34.8283 9.3883 34.5927 9.39668H24.9999C24.8706 9.39832 24.7447 9.43761 24.6375 9.50969C24.5304 9.58177 24.4469 9.68349 24.3971 9.80229C24.3474 9.9211 24.3337 10.0518 24.3577 10.1783C24.3817 10.3047 24.4424 10.4214 24.5323 10.514L28.7338 14.7337C28.9174 14.9181 29.1359 15.0644 29.3768 15.1642C29.6176 15.2639 29.8759 15.3151 30.1368 15.3147H34.3719C39.8867 15.3147 44.0582 9.44509 40.9754 3.62015" fill="white"/>
</svg>
